<svg xmlns="http://www.w3.org/2000/svg" xmlns:xlink="http://www.w3.org/1999/xlink" width="1000" zoomAndPan="magnify" viewBox="0 0 750 749.999995" height="1000" preserveAspectRatio="xMidYMid meet" version="1.0"><defs><filter x="0%" y="0%" width="100%" height="100%" id="cad6544db0"><feColorMatrix values="0 0 0 0 1 0 0 0 0 1 0 0 0 0 1 0 0 0 1 0" color-interpolation-filters="sRGB"/></filter><g/><mask id="8c9f73f8f4"><g filter="url(#cad6544db0)"><rect x="-75" width="900" fill="#000000" y="-74.999999" height="899.999994" fill-opacity="0.39"/></g></mask><clipPath id="b6ff479b1f"><path d="M 12 196.875 L 384 196.875 L 384 199.125 L 12 199.125 Z M 12 196.875 " clip-rule="nonzero"/></clipPath><clipPath id="9a81dcb014"><rect x="0" width="396" y="0" height="396"/></clipPath></defs><g mask="url(#8c9f73f8f4)"><g transform="matrix(1, 0, 0, 1, 177, 178)"><g clip-path="url(#9a81dcb014)"><g clip-path="url(#b6ff479b1f)"><path fill="#c6a86b" d="M 383.636719 197.882812 C 383.371094 197.886719 383.125 198.042969 382.863281 198.046875 C 381.671875 198.070312 269.433594 199.109375 209.589844 199.113281 C 142.070312 199.121094 12.554688 198.027344 12.527344 198.023438 C 12.339844 197.988281 12.339844 197.773438 12.527344 197.742188 C 12.554688 197.738281 142.070312 196.644531 209.589844 196.648438 C 269.433594 196.65625 381.671875 197.695312 382.863281 197.71875 C 383.125 197.722656 383.371094 197.878906 383.636719 197.882812 Z M 383.636719 197.882812 " fill-opacity="1" fill-rule="evenodd"/></g></g></g></g><g fill="#000000" fill-opacity="1"><g transform="translate(37.687157, 348.530072)"><g><path d="M 9.375 -3.734375 C 9.375 -2.972656 9.429688 -2.421875 9.546875 -2.078125 C 9.660156 -1.742188 9.882812 -1.519531 10.21875 -1.40625 C 10.5625 -1.289062 11.113281 -1.234375 11.875 -1.234375 L 13.375 -1.234375 C 15.664062 -1.234375 17.644531 -1.84375 19.3125 -3.0625 C 20.988281 -4.28125 22.101562 -5.929688 22.65625 -8.015625 C 22.65625 -8.066406 22.71875 -8.09375 22.84375 -8.09375 C 22.894531 -8.09375 22.957031 -8.070312 23.03125 -8.03125 C 23.101562 -7.988281 23.140625 -7.953125 23.140625 -7.921875 C 22.878906 -5.015625 22.75 -2.59375 22.75 -0.65625 C 22.75 -0.425781 22.695312 -0.257812 22.59375 -0.15625 C 22.488281 -0.0507812 22.320312 0 22.09375 0 L 1.3125 0 C 1.257812 0 1.234375 -0.0859375 1.234375 -0.265625 C 1.234375 -0.441406 1.257812 -0.53125 1.3125 -0.53125 C 2.257812 -0.53125 2.941406 -0.601562 3.359375 -0.75 C 3.785156 -0.894531 4.078125 -1.179688 4.234375 -1.609375 C 4.398438 -2.035156 4.484375 -2.6875 4.484375 -3.5625 L 4.484375 -23.9375 C 4.484375 -24.8125 4.398438 -25.453125 4.234375 -25.859375 C 4.078125 -26.273438 3.78125 -26.5625 3.34375 -26.71875 C 2.90625 -26.882812 2.226562 -26.96875 1.3125 -26.96875 C 1.257812 -26.96875 1.234375 -27.054688 1.234375 -27.234375 C 1.234375 -27.410156 1.257812 -27.5 1.3125 -27.5 L 3.5625 -27.453125 C 4.914062 -27.398438 6.03125 -27.375 6.90625 -27.375 C 7.789062 -27.375 8.90625 -27.398438 10.25 -27.453125 L 12.5 -27.5 C 12.582031 -27.5 12.625 -27.410156 12.625 -27.234375 C 12.625 -27.054688 12.582031 -26.96875 12.5 -26.96875 C 11.582031 -26.96875 10.90625 -26.882812 10.46875 -26.71875 C 10.03125 -26.5625 9.738281 -26.269531 9.59375 -25.84375 C 9.445312 -25.425781 9.375 -24.773438 9.375 -23.890625 Z M 9.375 -3.734375 "/></g></g></g><g fill="#000000" fill-opacity="1"><g transform="translate(70.462977, 348.530072)"><g><path d="M 9.984375 -3.5625 C 9.984375 -2.65625 10.054688 -1.992188 10.203125 -1.578125 C 10.347656 -1.171875 10.632812 -0.894531 11.0625 -0.75 C 11.488281 -0.601562 12.171875 -0.53125 13.109375 -0.53125 C 13.203125 -0.53125 13.25 -0.441406 13.25 -0.265625 C 13.25 -0.0859375 13.203125 0 13.109375 0 C 12.140625 0 11.378906 -0.015625 10.828125 -0.046875 L 7.484375 -0.09375 L 4.21875 -0.046875 C 3.632812 -0.015625 2.84375 0 1.84375 0 C 1.789062 0 1.765625 -0.0859375 1.765625 -0.265625 C 1.765625 -0.441406 1.789062 -0.53125 1.84375 -0.53125 C 2.78125 -0.53125 3.46875 -0.601562 3.90625 -0.75 C 4.351562 -0.894531 4.65625 -1.179688 4.8125 -1.609375 C 4.976562 -2.035156 5.0625 -2.6875 5.0625 -3.5625 L 5.0625 -23.9375 C 5.0625 -24.8125 4.976562 -25.453125 4.8125 -25.859375 C 4.65625 -26.273438 4.351562 -26.5625 3.90625 -26.71875 C 3.46875 -26.882812 2.78125 -26.96875 1.84375 -26.96875 C 1.789062 -26.96875 1.765625 -27.054688 1.765625 -27.234375 C 1.765625 -27.410156 1.789062 -27.5 1.84375 -27.5 L 4.21875 -27.453125 C 5.570312 -27.398438 6.660156 -27.375 7.484375 -27.375 C 8.390625 -27.375 9.519531 -27.398438 10.875 -27.453125 L 13.109375 -27.5 C 13.203125 -27.5 13.25 -27.410156 13.25 -27.234375 C 13.25 -27.054688 13.203125 -26.96875 13.109375 -26.96875 C 12.203125 -26.96875 11.523438 -26.878906 11.078125 -26.703125 C 10.640625 -26.523438 10.347656 -26.222656 10.203125 -25.796875 C 10.054688 -25.378906 9.984375 -24.726562 9.984375 -23.84375 Z M 9.984375 -3.5625 "/></g></g></g><g fill="#000000" fill-opacity="1"><g transform="translate(94.308389, 348.530072)"><g><path d="M 7.65625 -23.0625 C 7.65625 -22 7.925781 -21.054688 8.46875 -20.234375 C 9.007812 -19.421875 9.675781 -18.703125 10.46875 -18.078125 C 11.257812 -17.460938 12.332031 -16.71875 13.6875 -15.84375 C 15.15625 -14.90625 16.328125 -14.082031 17.203125 -13.375 C 18.085938 -12.664062 18.835938 -11.804688 19.453125 -10.796875 C 20.066406 -9.785156 20.375 -8.617188 20.375 -7.296875 C 20.375 -5.773438 19.960938 -4.421875 19.140625 -3.234375 C 18.316406 -2.046875 17.175781 -1.117188 15.71875 -0.453125 C 14.269531 0.203125 12.65625 0.53125 10.875 0.53125 C 9.550781 0.53125 8.171875 0.347656 6.734375 -0.015625 C 5.296875 -0.390625 4.328125 -0.796875 3.828125 -1.234375 C 3.679688 -1.347656 3.570312 -1.457031 3.5 -1.5625 C 3.425781 -1.664062 3.390625 -1.832031 3.390625 -2.0625 L 3.25 -9.0625 L 3.25 -9.109375 C 3.25 -9.222656 3.320312 -9.285156 3.46875 -9.296875 C 3.625 -9.316406 3.710938 -9.269531 3.734375 -9.15625 C 4.617188 -7.363281 5.390625 -5.910156 6.046875 -4.796875 C 6.710938 -3.679688 7.550781 -2.695312 8.5625 -1.84375 C 9.570312 -1 10.722656 -0.578125 12.015625 -0.578125 C 13.179688 -0.578125 14.144531 -0.890625 14.90625 -1.515625 C 15.675781 -2.148438 16.0625 -3.226562 16.0625 -4.75 C 16.0625 -6.039062 15.773438 -7.171875 15.203125 -8.140625 C 14.628906 -9.109375 13.929688 -9.925781 13.109375 -10.59375 C 12.285156 -11.269531 11.15625 -12.082031 9.71875 -13.03125 C 8.3125 -13.9375 7.21875 -14.710938 6.4375 -15.359375 C 5.664062 -16.003906 5 -16.78125 4.4375 -17.6875 C 3.882812 -18.59375 3.609375 -19.664062 3.609375 -20.90625 C 3.609375 -22.457031 4.054688 -23.765625 4.953125 -24.828125 C 5.847656 -25.898438 7 -26.691406 8.40625 -27.203125 C 9.8125 -27.722656 11.289062 -27.984375 12.84375 -27.984375 C 13.875 -27.984375 14.914062 -27.882812 15.96875 -27.6875 C 17.03125 -27.5 17.882812 -27.273438 18.53125 -27.015625 C 18.789062 -26.898438 18.960938 -26.773438 19.046875 -26.640625 C 19.140625 -26.503906 19.1875 -26.335938 19.1875 -26.140625 L 19.1875 -19.671875 C 19.1875 -19.578125 19.113281 -19.507812 18.96875 -19.46875 C 18.820312 -19.425781 18.734375 -19.445312 18.703125 -19.53125 L 18.34375 -20.375 C 17.613281 -22.21875 16.753906 -23.785156 15.765625 -25.078125 C 14.785156 -26.367188 13.414062 -27.015625 11.65625 -27.015625 C 10.488281 -27.015625 9.53125 -26.675781 8.78125 -26 C 8.03125 -25.320312 7.65625 -24.34375 7.65625 -23.0625 Z M 7.65625 -23.0625 "/></g></g></g><g fill="#000000" fill-opacity="1"><g transform="translate(125.764442, 348.530072)"><g><path d="M 15.84375 -15.4375 C 18.300781 -15.144531 20.253906 -14.320312 21.703125 -12.96875 C 23.160156 -11.625 23.890625 -9.957031 23.890625 -7.96875 C 23.890625 -6.4375 23.445312 -5.054688 22.5625 -3.828125 C 21.6875 -2.597656 20.472656 -1.625 18.921875 -0.90625 C 17.367188 -0.1875 15.640625 0.171875 13.734375 0.171875 C 12.910156 0.171875 11.96875 0.128906 10.90625 0.046875 C 10.5 0.015625 9.992188 -0.015625 9.390625 -0.046875 C 8.785156 -0.078125 8.117188 -0.09375 7.390625 -0.09375 L 4.1875 -0.046875 C 3.59375 -0.015625 2.796875 0 1.796875 0 C 1.710938 0 1.671875 -0.0859375 1.671875 -0.265625 C 1.671875 -0.441406 1.710938 -0.53125 1.796875 -0.53125 C 2.648438 -0.53125 3.296875 -0.609375 3.734375 -0.765625 C 4.179688 -0.929688 4.5 -1.222656 4.6875 -1.640625 C 4.875 -2.066406 4.96875 -2.707031 4.96875 -3.5625 L 4.96875 -23.9375 C 4.96875 -25.164062 4.757812 -25.976562 4.34375 -26.375 C 3.9375 -26.769531 3.101562 -26.96875 1.84375 -26.96875 C 1.789062 -26.96875 1.765625 -27.054688 1.765625 -27.234375 C 1.765625 -27.410156 1.789062 -27.5 1.84375 -27.5 L 4.1875 -27.453125 C 5.53125 -27.398438 6.597656 -27.375 7.390625 -27.375 C 8.210938 -27.375 9.0625 -27.414062 9.9375 -27.5 C 10.238281 -27.53125 10.679688 -27.554688 11.265625 -27.578125 C 11.847656 -27.609375 12.359375 -27.625 12.796875 -27.625 C 15.472656 -27.625 17.539062 -27.140625 19 -26.171875 C 20.46875 -25.210938 21.203125 -23.804688 21.203125 -21.953125 C 21.203125 -20.546875 20.738281 -19.269531 19.8125 -18.125 C 18.894531 -16.976562 17.570312 -16.082031 15.84375 -15.4375 Z M 12.140625 -26.65625 C 11.296875 -26.65625 10.710938 -26.457031 10.390625 -26.0625 C 10.066406 -25.664062 9.90625 -24.925781 9.90625 -23.84375 L 9.90625 -15.484375 L 11.65625 -15.4375 C 13.1875 -15.4375 14.359375 -16.007812 15.171875 -17.15625 C 15.992188 -18.300781 16.40625 -19.769531 16.40625 -21.5625 C 16.40625 -23.226562 16.039062 -24.492188 15.3125 -25.359375 C 14.582031 -26.222656 13.523438 -26.65625 12.140625 -26.65625 Z M 12.984375 -0.921875 C 16.828125 -0.921875 18.75 -2.914062 18.75 -6.90625 C 18.75 -9.164062 18.203125 -10.953125 17.109375 -12.265625 C 16.023438 -13.585938 14.382812 -14.25 12.1875 -14.25 C 11.332031 -14.25 10.570312 -14.222656 9.90625 -14.171875 L 9.90625 -3.5625 C 9.90625 -2.59375 10.09375 -1.910156 10.46875 -1.515625 C 10.851562 -1.117188 11.691406 -0.921875 12.984375 -0.921875 Z M 12.984375 -0.921875 "/></g></g></g><g fill="#000000" fill-opacity="1"><g transform="translate(160.739873, 348.530072)"><g><path d="M 16.109375 0.53125 C 13.378906 0.53125 10.945312 -0.101562 8.8125 -1.375 C 6.6875 -2.65625 5.046875 -4.390625 3.890625 -6.578125 C 2.734375 -8.765625 2.15625 -11.148438 2.15625 -13.734375 C 2.15625 -16.753906 2.914062 -19.34375 4.4375 -21.5 C 5.96875 -23.65625 7.925781 -25.273438 10.3125 -26.359375 C 12.707031 -27.441406 15.148438 -27.984375 17.640625 -27.984375 C 20.429688 -27.984375 22.878906 -27.328125 24.984375 -26.015625 C 27.097656 -24.710938 28.71875 -22.988281 29.84375 -20.84375 C 30.976562 -18.707031 31.546875 -16.4375 31.546875 -14.03125 C 31.546875 -11.363281 30.84375 -8.914062 29.4375 -6.6875 C 28.03125 -4.457031 26.144531 -2.695312 23.78125 -1.40625 C 21.414062 -0.113281 18.859375 0.53125 16.109375 0.53125 Z M 17.5625 -0.578125 C 19.195312 -0.578125 20.664062 -1.050781 21.96875 -2 C 23.28125 -2.957031 24.300781 -4.351562 25.03125 -6.1875 C 25.769531 -8.019531 26.140625 -10.210938 26.140625 -12.765625 C 26.140625 -15.460938 25.726562 -17.875 24.90625 -20 C 24.082031 -22.125 22.894531 -23.785156 21.34375 -24.984375 C 19.789062 -26.191406 17.972656 -26.796875 15.890625 -26.796875 C 13.210938 -26.796875 11.15625 -25.789062 9.71875 -23.78125 C 8.28125 -21.769531 7.5625 -18.960938 7.5625 -15.359375 C 7.5625 -12.515625 7.992188 -9.96875 8.859375 -7.71875 C 9.722656 -5.476562 10.910156 -3.726562 12.421875 -2.46875 C 13.941406 -1.207031 15.65625 -0.578125 17.5625 -0.578125 Z M 17.5625 -0.578125 "/></g></g></g><g fill="#000000" fill-opacity="1"><g transform="translate(203.237964, 348.530072)"><g><path d="M 31.8125 -27.5 C 31.875 -27.5 31.90625 -27.410156 31.90625 -27.234375 C 31.90625 -27.054688 31.875 -26.96875 31.8125 -26.96875 C 30.632812 -26.96875 29.707031 -26.503906 29.03125 -25.578125 C 28.363281 -24.660156 28.03125 -23.425781 28.03125 -21.875 L 28.03125 0.65625 C 28.03125 0.75 27.960938 0.804688 27.828125 0.828125 C 27.691406 0.859375 27.597656 0.847656 27.546875 0.796875 L 6.90625 -22.703125 L 6.90625 -5.59375 C 6.90625 -4.03125 7.226562 -2.796875 7.875 -1.890625 C 8.519531 -0.984375 9.414062 -0.53125 10.5625 -0.53125 C 10.613281 -0.53125 10.640625 -0.441406 10.640625 -0.265625 C 10.640625 -0.0859375 10.613281 0 10.5625 0 C 9.738281 0 9.109375 -0.015625 8.671875 -0.046875 L 6.296875 -0.09375 L 3.5625 -0.046875 C 3.0625 -0.015625 2.34375 0 1.40625 0 C 1.320312 0 1.28125 -0.0859375 1.28125 -0.265625 C 1.28125 -0.441406 1.320312 -0.53125 1.40625 -0.53125 C 2.695312 -0.53125 3.71875 -0.984375 4.46875 -1.890625 C 5.21875 -2.796875 5.59375 -4.03125 5.59375 -5.59375 L 5.59375 -24.203125 C 4.625 -25.253906 3.789062 -25.976562 3.09375 -26.375 C 2.40625 -26.769531 1.695312 -26.96875 0.96875 -26.96875 C 0.90625 -26.96875 0.875 -27.054688 0.875 -27.234375 C 0.875 -27.410156 0.90625 -27.5 0.96875 -27.5 L 2.8125 -27.453125 C 3.195312 -27.421875 3.753906 -27.40625 4.484375 -27.40625 L 7.828125 -27.453125 C 8.242188 -27.484375 8.742188 -27.5 9.328125 -27.5 C 9.566406 -27.5 9.742188 -27.4375 9.859375 -27.3125 C 9.972656 -27.195312 10.175781 -26.953125 10.46875 -26.578125 C 10.96875 -25.898438 11.320312 -25.445312 11.53125 -25.21875 L 26.75 -7.65625 L 26.75 -21.875 C 26.75 -23.457031 26.425781 -24.703125 25.78125 -25.609375 C 25.132812 -26.515625 24.238281 -26.96875 23.09375 -26.96875 C 23.039062 -26.96875 23.015625 -27.054688 23.015625 -27.234375 C 23.015625 -27.410156 23.039062 -27.5 23.09375 -27.5 L 24.984375 -27.453125 C 25.929688 -27.398438 26.726562 -27.375 27.375 -27.375 C 27.957031 -27.375 28.773438 -27.398438 29.828125 -27.453125 Z M 31.8125 -27.5 "/></g></g></g><g fill="#000000" fill-opacity="1"><g transform="translate(244.372297, 348.530072)"><g/></g></g><g fill="#000000" fill-opacity="1"><g transform="translate(263.466557, 348.530072)"><g><path d="M 9.5 -3.734375 C 9.5 -2.796875 9.601562 -2.113281 9.8125 -1.6875 C 10.019531 -1.269531 10.410156 -0.972656 10.984375 -0.796875 C 11.554688 -0.617188 12.472656 -0.53125 13.734375 -0.53125 C 13.816406 -0.53125 13.859375 -0.441406 13.859375 -0.265625 C 13.859375 -0.0859375 13.816406 0 13.734375 0 C 12.523438 0 11.582031 -0.015625 10.90625 -0.046875 L 7.078125 -0.09375 L 3.875 -0.046875 C 3.28125 -0.015625 2.488281 0 1.5 0 C 1.40625 0 1.359375 -0.0859375 1.359375 -0.265625 C 1.359375 -0.441406 1.40625 -0.53125 1.5 -0.53125 C 2.4375 -0.53125 3.117188 -0.601562 3.546875 -0.75 C 3.972656 -0.894531 4.257812 -1.179688 4.40625 -1.609375 C 4.550781 -2.035156 4.625 -2.6875 4.625 -3.5625 L 4.625 -23.9375 C 4.625 -24.8125 4.550781 -25.453125 4.40625 -25.859375 C 4.257812 -26.273438 3.960938 -26.5625 3.515625 -26.71875 C 3.078125 -26.882812 2.40625 -26.96875 1.5 -26.96875 C 1.40625 -26.96875 1.359375 -27.054688 1.359375 -27.234375 C 1.359375 -27.410156 1.40625 -27.5 1.5 -27.5 L 3.828125 -27.453125 C 5.179688 -27.398438 6.253906 -27.375 7.046875 -27.375 C 7.742188 -27.375 8.578125 -27.414062 9.546875 -27.5 C 9.929688 -27.53125 10.414062 -27.554688 11 -27.578125 C 11.582031 -27.609375 12.257812 -27.625 13.03125 -27.625 C 16.019531 -27.625 18.378906 -27 20.109375 -25.75 C 21.835938 -24.507812 22.703125 -22.582031 22.703125 -19.96875 C 22.703125 -18.15625 22.234375 -16.617188 21.296875 -15.359375 C 20.359375 -14.097656 19.144531 -13.144531 17.65625 -12.5 C 16.175781 -11.851562 14.660156 -11.53125 13.109375 -11.53125 C 12.316406 -11.53125 11.628906 -11.601562 11.046875 -11.75 C 10.984375 -11.75 10.953125 -11.820312 10.953125 -11.96875 C 10.953125 -12.050781 10.972656 -12.132812 11.015625 -12.21875 C 11.066406 -12.3125 11.117188 -12.34375 11.171875 -12.3125 C 11.617188 -12.195312 12.117188 -12.140625 12.671875 -12.140625 C 14.023438 -12.140625 15.144531 -12.769531 16.03125 -14.03125 C 16.925781 -15.289062 17.375 -17.082031 17.375 -19.40625 C 17.375 -21.71875 16.882812 -23.503906 15.90625 -24.765625 C 14.925781 -26.023438 13.492188 -26.65625 11.609375 -26.65625 C 10.796875 -26.65625 10.238281 -26.460938 9.9375 -26.078125 C 9.644531 -25.703125 9.5 -24.957031 9.5 -23.84375 Z M 9.5 -3.734375 "/></g></g></g><g fill="#000000" fill-opacity="1"><g transform="translate(296.594317, 348.530072)"><g><path d="M 31.15625 -0.53125 C 31.207031 -0.53125 31.234375 -0.441406 31.234375 -0.265625 C 31.234375 -0.0859375 31.207031 0 31.15625 0 L 23.3125 0 C 22.675781 0 21.476562 -1.207031 19.71875 -3.625 C 17.957031 -6.050781 15.828125 -9.429688 13.328125 -13.765625 C 13.097656 -13.742188 12.757812 -13.734375 12.3125 -13.734375 C 11.175781 -13.734375 10.375 -13.742188 9.90625 -13.765625 L 9.90625 -3.5625 C 9.90625 -2.65625 9.976562 -1.992188 10.125 -1.578125 C 10.269531 -1.171875 10.550781 -0.894531 10.96875 -0.75 C 11.394531 -0.601562 12.082031 -0.53125 13.03125 -0.53125 C 13.082031 -0.53125 13.109375 -0.441406 13.109375 -0.265625 C 13.109375 -0.0859375 13.082031 0 13.03125 0 C 12.0625 0 11.296875 -0.015625 10.734375 -0.046875 L 7.390625 -0.09375 L 4.1875 -0.046875 C 3.59375 -0.015625 2.796875 0 1.796875 0 C 1.710938 0 1.671875 -0.0859375 1.671875 -0.265625 C 1.671875 -0.441406 1.710938 -0.53125 1.796875 -0.53125 C 2.742188 -0.53125 3.425781 -0.601562 3.84375 -0.75 C 4.269531 -0.894531 4.5625 -1.179688 4.71875 -1.609375 C 4.882812 -2.035156 4.96875 -2.6875 4.96875 -3.5625 L 4.96875 -23.9375 C 4.96875 -24.8125 4.894531 -25.453125 4.75 -25.859375 C 4.601562 -26.273438 4.3125 -26.5625 3.875 -26.71875 C 3.4375 -26.882812 2.757812 -26.96875 1.84375 -26.96875 C 1.789062 -26.96875 1.765625 -27.054688 1.765625 -27.234375 C 1.765625 -27.410156 1.789062 -27.5 1.84375 -27.5 L 4.1875 -27.453125 C 5.53125 -27.398438 6.597656 -27.375 7.390625 -27.375 C 8.242188 -27.375 9.179688 -27.414062 10.203125 -27.5 C 10.523438 -27.53125 10.941406 -27.554688 11.453125 -27.578125 C 11.972656 -27.609375 12.582031 -27.625 13.28125 -27.625 C 15.988281 -27.625 18.082031 -27.132812 19.5625 -26.15625 C 21.039062 -25.175781 21.78125 -23.804688 21.78125 -22.046875 C 21.78125 -20.691406 21.367188 -19.398438 20.546875 -18.171875 C 19.722656 -16.941406 18.65625 -15.945312 17.34375 -15.1875 C 19.6875 -11.488281 21.65625 -8.597656 23.25 -6.515625 C 24.851562 -4.429688 26.273438 -2.910156 27.515625 -1.953125 C 28.765625 -1.003906 29.976562 -0.53125 31.15625 -0.53125 Z M 9.90625 -15.046875 C 10.601562 -14.929688 11.453125 -14.875 12.453125 -14.875 C 13.503906 -14.875 14.335938 -15.035156 14.953125 -15.359375 C 15.578125 -15.679688 16.023438 -16.238281 16.296875 -17.03125 C 16.578125 -17.820312 16.71875 -18.9375 16.71875 -20.375 C 16.71875 -22.78125 16.363281 -24.4375 15.65625 -25.34375 C 14.957031 -26.25 13.945312 -26.703125 12.625 -26.703125 C 11.625 -26.703125 10.921875 -26.484375 10.515625 -26.046875 C 10.109375 -25.609375 9.90625 -24.875 9.90625 -23.84375 Z M 9.90625 -15.046875 "/></g></g></g><g fill="#000000" fill-opacity="1"><g transform="translate(336.100945, 348.530072)"><g><path d="M 9.984375 -3.5625 C 9.984375 -2.65625 10.054688 -1.992188 10.203125 -1.578125 C 10.347656 -1.171875 10.632812 -0.894531 11.0625 -0.75 C 11.488281 -0.601562 12.171875 -0.53125 13.109375 -0.53125 C 13.203125 -0.53125 13.25 -0.441406 13.25 -0.265625 C 13.25 -0.0859375 13.203125 0 13.109375 0 C 12.140625 0 11.378906 -0.015625 10.828125 -0.046875 L 7.484375 -0.09375 L 4.21875 -0.046875 C 3.632812 -0.015625 2.84375 0 1.84375 0 C 1.789062 0 1.765625 -0.0859375 1.765625 -0.265625 C 1.765625 -0.441406 1.789062 -0.53125 1.84375 -0.53125 C 2.78125 -0.53125 3.46875 -0.601562 3.90625 -0.75 C 4.351562 -0.894531 4.65625 -1.179688 4.8125 -1.609375 C 4.976562 -2.035156 5.0625 -2.6875 5.0625 -3.5625 L 5.0625 -23.9375 C 5.0625 -24.8125 4.976562 -25.453125 4.8125 -25.859375 C 4.65625 -26.273438 4.351562 -26.5625 3.90625 -26.71875 C 3.46875 -26.882812 2.78125 -26.96875 1.84375 -26.96875 C 1.789062 -26.96875 1.765625 -27.054688 1.765625 -27.234375 C 1.765625 -27.410156 1.789062 -27.5 1.84375 -27.5 L 4.21875 -27.453125 C 5.570312 -27.398438 6.660156 -27.375 7.484375 -27.375 C 8.390625 -27.375 9.519531 -27.398438 10.875 -27.453125 L 13.109375 -27.5 C 13.203125 -27.5 13.25 -27.410156 13.25 -27.234375 C 13.25 -27.054688 13.203125 -26.96875 13.109375 -26.96875 C 12.203125 -26.96875 11.523438 -26.878906 11.078125 -26.703125 C 10.640625 -26.523438 10.347656 -26.222656 10.203125 -25.796875 C 10.054688 -25.378906 9.984375 -24.726562 9.984375 -23.84375 Z M 9.984375 -3.5625 "/></g></g></g><g fill="#000000" fill-opacity="1"><g transform="translate(359.946357, 348.530072)"><g><path d="M 29.265625 -27.5 C 29.347656 -27.5 29.390625 -27.410156 29.390625 -27.234375 C 29.390625 -27.054688 29.347656 -26.96875 29.265625 -26.96875 C 28.203125 -26.96875 27.1875 -26.5 26.21875 -25.5625 C 25.25 -24.625 24.472656 -23.363281 23.890625 -21.78125 L 15.75 -0.046875 C 15.71875 0.0664062 15.554688 0.125 15.265625 0.125 C 14.972656 0.125 14.8125 0.0664062 14.78125 -0.046875 L 3.5625 -23.84375 C 3.03125 -24.90625 2.5 -25.691406 1.96875 -26.203125 C 1.445312 -26.710938 0.863281 -26.96875 0.21875 -26.96875 C 0.132812 -26.96875 0.09375 -27.054688 0.09375 -27.234375 C 0.09375 -27.410156 0.132812 -27.5 0.21875 -27.5 C 0.65625 -27.5 0.960938 -27.484375 1.140625 -27.453125 C 1.734375 -27.398438 2.5 -27.375 3.4375 -27.375 C 5.957031 -27.375 8.097656 -27.398438 9.859375 -27.453125 C 10.328125 -27.484375 10.910156 -27.5 11.609375 -27.5 C 11.703125 -27.5 11.75 -27.410156 11.75 -27.234375 C 11.75 -27.054688 11.703125 -26.96875 11.609375 -26.96875 C 10.734375 -26.96875 10.050781 -26.785156 9.5625 -26.421875 C 9.082031 -26.054688 8.84375 -25.535156 8.84375 -24.859375 C 8.84375 -24.359375 9.003906 -23.757812 9.328125 -23.0625 L 16.9375 -6.8125 L 22.65625 -21.90625 C 22.945312 -22.726562 23.09375 -23.4375 23.09375 -24.03125 C 23.09375 -24.9375 22.820312 -25.648438 22.28125 -26.171875 C 21.738281 -26.703125 20.957031 -26.96875 19.9375 -26.96875 C 19.84375 -26.96875 19.796875 -27.054688 19.796875 -27.234375 C 19.796875 -27.410156 19.84375 -27.5 19.9375 -27.5 L 22.09375 -27.453125 C 23.320312 -27.398438 24.421875 -27.375 25.390625 -27.375 C 25.941406 -27.375 26.628906 -27.398438 27.453125 -27.453125 Z M 29.265625 -27.5 "/></g></g></g><g fill="#000000" fill-opacity="1"><g transform="translate(393.425771, 348.530072)"><g><path d="M 31.546875 -0.53125 C 31.691406 -0.53125 31.765625 -0.441406 31.765625 -0.265625 C 31.765625 -0.0859375 31.691406 0 31.546875 0 C 30.960938 0 30.050781 -0.03125 28.8125 -0.09375 C 27.53125 -0.144531 26.609375 -0.171875 26.046875 -0.171875 C 25.316406 -0.171875 24.421875 -0.144531 23.359375 -0.09375 C 22.367188 -0.03125 21.578125 0 20.984375 0 C 20.867188 0 20.8125 -0.0859375 20.8125 -0.265625 C 20.8125 -0.441406 20.867188 -0.53125 20.984375 -0.53125 C 21.742188 -0.53125 22.289062 -0.609375 22.625 -0.765625 C 22.96875 -0.929688 23.140625 -1.21875 23.140625 -1.625 C 23.140625 -2.125 22.847656 -2.960938 22.265625 -4.140625 L 17.6875 -13.15625 L 9.859375 -13.15625 L 6.734375 -6.25 C 6.347656 -5.394531 6.15625 -4.601562 6.15625 -3.875 C 6.15625 -2.8125 6.53125 -1.988281 7.28125 -1.40625 C 8.03125 -0.820312 9.035156 -0.53125 10.296875 -0.53125 C 10.441406 -0.53125 10.515625 -0.441406 10.515625 -0.265625 C 10.515625 -0.0859375 10.441406 0 10.296875 0 C 9.765625 0 9.003906 -0.03125 8.015625 -0.09375 C 6.898438 -0.144531 5.929688 -0.171875 5.109375 -0.171875 C 4.316406 -0.171875 3.363281 -0.144531 2.25 -0.09375 C 1.25 -0.03125 0.441406 0 -0.171875 0 C -0.296875 0 -0.359375 -0.0859375 -0.359375 -0.265625 C -0.359375 -0.441406 -0.296875 -0.53125 -0.171875 -0.53125 C 0.648438 -0.53125 1.335938 -0.695312 1.890625 -1.03125 C 2.453125 -1.375 3.007812 -1.976562 3.5625 -2.84375 C 4.125 -3.707031 4.785156 -4.988281 5.546875 -6.6875 L 15.09375 -27.671875 C 15.15625 -27.765625 15.285156 -27.8125 15.484375 -27.8125 C 15.722656 -27.8125 15.859375 -27.765625 15.890625 -27.671875 L 26.890625 -6.03125 C 27.910156 -3.945312 28.757812 -2.507812 29.4375 -1.71875 C 30.113281 -0.925781 30.816406 -0.53125 31.546875 -0.53125 Z M 10.421875 -14.390625 L 17.078125 -14.390625 L 13.546875 -21.34375 Z M 10.421875 -14.390625 "/></g></g></g><g fill="#000000" fill-opacity="1"><g transform="translate(430.644565, 348.530072)"><g><path d="M 9.765625 -26.484375 C 6.273438 -26.484375 3.769531 -24.210938 2.25 -19.671875 C 2.21875 -19.578125 2.128906 -19.535156 1.984375 -19.546875 C 1.835938 -19.566406 1.765625 -19.625 1.765625 -19.71875 C 1.878906 -20.882812 2.007812 -22.398438 2.15625 -24.265625 C 2.300781 -26.128906 2.375 -27.53125 2.375 -28.46875 C 2.375 -28.613281 2.453125 -28.6875 2.609375 -28.6875 C 2.773438 -28.6875 2.859375 -28.613281 2.859375 -28.46875 C 2.859375 -27.820312 3.695312 -27.5 5.375 -27.5 C 7.894531 -27.414062 10.84375 -27.375 14.21875 -27.375 C 15.945312 -27.375 17.78125 -27.398438 19.71875 -27.453125 L 22.703125 -27.5 C 23.816406 -27.5 24.628906 -27.570312 25.140625 -27.71875 C 25.660156 -27.863281 25.992188 -28.15625 26.140625 -28.59375 C 26.171875 -28.71875 26.265625 -28.78125 26.421875 -28.78125 C 26.578125 -28.78125 26.65625 -28.71875 26.65625 -28.59375 C 26.570312 -27.71875 26.476562 -26.3125 26.375 -24.375 C 26.269531 -22.4375 26.21875 -20.882812 26.21875 -19.71875 C 26.21875 -19.625 26.144531 -19.578125 26 -19.578125 C 25.851562 -19.578125 25.765625 -19.625 25.734375 -19.71875 C 25.296875 -21.96875 24.472656 -23.65625 23.265625 -24.78125 C 22.066406 -25.914062 20.585938 -26.484375 18.828125 -26.484375 C 17.984375 -26.484375 17.421875 -26.300781 17.140625 -25.9375 C 16.859375 -25.570312 16.71875 -24.875 16.71875 -23.84375 L 16.71875 -3.5625 C 16.71875 -2.65625 16.804688 -1.992188 16.984375 -1.578125 C 17.160156 -1.171875 17.5 -0.894531 18 -0.75 C 18.5 -0.601562 19.289062 -0.53125 20.375 -0.53125 C 20.457031 -0.53125 20.5 -0.441406 20.5 -0.265625 C 20.5 -0.0859375 20.457031 0 20.375 0 C 19.3125 0 18.472656 -0.015625 17.859375 -0.046875 L 14.21875 -0.09375 L 10.640625 -0.046875 C 10.023438 -0.015625 9.175781 0 8.09375 0 C 8.007812 0 7.96875 -0.0859375 7.96875 -0.265625 C 7.96875 -0.441406 8.007812 -0.53125 8.09375 -0.53125 C 9.15625 -0.53125 9.941406 -0.601562 10.453125 -0.75 C 10.960938 -0.894531 11.3125 -1.179688 11.5 -1.609375 C 11.695312 -2.035156 11.796875 -2.6875 11.796875 -3.5625 L 11.796875 -23.9375 C 11.796875 -24.9375 11.660156 -25.609375 11.390625 -25.953125 C 11.128906 -26.304688 10.585938 -26.484375 9.765625 -26.484375 Z M 9.765625 -26.484375 "/></g></g></g><g fill="#000000" fill-opacity="1"><g transform="translate(467.731661, 348.530072)"><g><path d="M 21.828125 -7 C 21.828125 -7.050781 21.882812 -7.078125 22 -7.078125 C 22.082031 -7.078125 22.160156 -7.054688 22.234375 -7.015625 C 22.316406 -6.972656 22.359375 -6.9375 22.359375 -6.90625 C 22.054688 -4.613281 21.90625 -2.53125 21.90625 -0.65625 C 21.90625 -0.425781 21.859375 -0.257812 21.765625 -0.15625 C 21.679688 -0.0507812 21.507812 0 21.25 0 L 1.796875 0 C 1.710938 0 1.671875 -0.0859375 1.671875 -0.265625 C 1.671875 -0.441406 1.710938 -0.53125 1.796875 -0.53125 C 2.742188 -0.53125 3.425781 -0.601562 3.84375 -0.75 C 4.269531 -0.894531 4.554688 -1.179688 4.703125 -1.609375 C 4.847656 -2.035156 4.921875 -2.6875 4.921875 -3.5625 L 4.921875 -23.9375 C 4.921875 -24.8125 4.847656 -25.453125 4.703125 -25.859375 C 4.554688 -26.273438 4.265625 -26.5625 3.828125 -26.71875 C 3.390625 -26.882812 2.710938 -26.96875 1.796875 -26.96875 C 1.710938 -26.96875 1.671875 -27.054688 1.671875 -27.234375 C 1.671875 -27.410156 1.710938 -27.5 1.796875 -27.5 L 20.453125 -27.5 C 20.753906 -27.5 20.90625 -27.367188 20.90625 -27.109375 L 20.984375 -21.25 C 20.984375 -21.1875 20.898438 -21.140625 20.734375 -21.109375 C 20.578125 -21.085938 20.484375 -21.117188 20.453125 -21.203125 C 19.984375 -22.910156 19.191406 -24.171875 18.078125 -24.984375 C 16.960938 -25.804688 15.5 -26.21875 13.6875 -26.21875 L 12.359375 -26.21875 C 11.484375 -26.21875 10.835938 -26.023438 10.421875 -25.640625 C 10.015625 -25.265625 9.8125 -24.679688 9.8125 -23.890625 L 9.8125 -14.921875 L 13.46875 -14.921875 C 15.164062 -14.921875 16.46875 -15.210938 17.375 -15.796875 C 18.289062 -16.378906 18.75 -17.203125 18.75 -18.265625 C 18.75 -18.347656 18.828125 -18.390625 18.984375 -18.390625 C 19.148438 -18.390625 19.234375 -18.347656 19.234375 -18.265625 L 19.1875 -14.296875 L 19.234375 -12.1875 C 19.285156 -11.1875 19.3125 -10.394531 19.3125 -9.8125 C 19.3125 -9.75 19.222656 -9.71875 19.046875 -9.71875 C 18.867188 -9.71875 18.78125 -9.75 18.78125 -9.8125 C 18.78125 -11.007812 18.316406 -11.953125 17.390625 -12.640625 C 16.472656 -13.335938 15.148438 -13.6875 13.421875 -13.6875 L 9.8125 -13.6875 L 9.8125 -3.734375 C 9.8125 -2.890625 9.972656 -2.257812 10.296875 -1.84375 C 10.617188 -1.4375 11.132812 -1.234375 11.84375 -1.234375 L 13.28125 -1.234375 C 15.570312 -1.234375 17.40625 -1.703125 18.78125 -2.640625 C 20.164062 -3.578125 21.179688 -5.03125 21.828125 -7 Z M 21.828125 -7 "/></g></g></g><g fill="#000000" fill-opacity="1"><g transform="translate(500.81543, 348.530072)"><g/></g></g><g fill="#000000" fill-opacity="1"><g transform="translate(519.909667, 348.530072)"><g><path d="M 16.109375 0.53125 C 13.378906 0.53125 10.945312 -0.101562 8.8125 -1.375 C 6.6875 -2.65625 5.046875 -4.390625 3.890625 -6.578125 C 2.734375 -8.765625 2.15625 -11.148438 2.15625 -13.734375 C 2.15625 -16.753906 2.914062 -19.34375 4.4375 -21.5 C 5.96875 -23.65625 7.925781 -25.273438 10.3125 -26.359375 C 12.707031 -27.441406 15.148438 -27.984375 17.640625 -27.984375 C 20.429688 -27.984375 22.878906 -27.328125 24.984375 -26.015625 C 27.097656 -24.710938 28.71875 -22.988281 29.84375 -20.84375 C 30.976562 -18.707031 31.546875 -16.4375 31.546875 -14.03125 C 31.546875 -11.363281 30.84375 -8.914062 29.4375 -6.6875 C 28.03125 -4.457031 26.144531 -2.695312 23.78125 -1.40625 C 21.414062 -0.113281 18.859375 0.53125 16.109375 0.53125 Z M 17.5625 -0.578125 C 19.195312 -0.578125 20.664062 -1.050781 21.96875 -2 C 23.28125 -2.957031 24.300781 -4.351562 25.03125 -6.1875 C 25.769531 -8.019531 26.140625 -10.210938 26.140625 -12.765625 C 26.140625 -15.460938 25.726562 -17.875 24.90625 -20 C 24.082031 -22.125 22.894531 -23.785156 21.34375 -24.984375 C 19.789062 -26.191406 17.972656 -26.796875 15.890625 -26.796875 C 13.210938 -26.796875 11.15625 -25.789062 9.71875 -23.78125 C 8.28125 -21.769531 7.5625 -18.960938 7.5625 -15.359375 C 7.5625 -12.515625 7.992188 -9.96875 8.859375 -7.71875 C 9.722656 -5.476562 10.910156 -3.726562 12.421875 -2.46875 C 13.941406 -1.207031 15.65625 -0.578125 17.5625 -0.578125 Z M 17.5625 -0.578125 "/></g></g></g><g fill="#000000" fill-opacity="1"><g transform="translate(562.407758, 348.530072)"><g><path d="M 20.984375 -21.25 C 20.984375 -21.1875 20.898438 -21.140625 20.734375 -21.109375 C 20.578125 -21.085938 20.484375 -21.117188 20.453125 -21.203125 C 19.984375 -22.910156 19.191406 -24.171875 18.078125 -24.984375 C 16.960938 -25.804688 15.5 -26.21875 13.6875 -26.21875 L 12.359375 -26.21875 C 11.484375 -26.21875 10.835938 -26.023438 10.421875 -25.640625 C 10.015625 -25.265625 9.8125 -24.679688 9.8125 -23.890625 L 9.8125 -14.390625 L 12.984375 -14.390625 C 14.679688 -14.390625 15.976562 -14.6875 16.875 -15.28125 C 17.769531 -15.882812 18.21875 -16.71875 18.21875 -17.78125 C 18.21875 -17.832031 18.304688 -17.859375 18.484375 -17.859375 C 18.660156 -17.859375 18.75 -17.832031 18.75 -17.78125 L 18.703125 -13.765625 C 18.703125 -12.828125 18.71875 -12.125 18.75 -11.65625 L 18.78125 -9.328125 C 18.78125 -9.242188 18.691406 -9.203125 18.515625 -9.203125 C 18.347656 -9.203125 18.265625 -9.242188 18.265625 -9.328125 C 18.265625 -10.503906 17.800781 -11.4375 16.875 -12.125 C 15.945312 -12.8125 14.632812 -13.15625 12.9375 -13.15625 L 9.8125 -13.15625 L 9.8125 -3.734375 C 9.8125 -2.828125 9.925781 -2.15625 10.15625 -1.71875 C 10.394531 -1.28125 10.835938 -0.972656 11.484375 -0.796875 C 12.128906 -0.617188 13.140625 -0.53125 14.515625 -0.53125 C 14.578125 -0.53125 14.609375 -0.441406 14.609375 -0.265625 C 14.609375 -0.0859375 14.578125 0 14.515625 0 C 13.316406 0 12.378906 -0.015625 11.703125 -0.046875 L 7.21875 -0.09375 L 3.921875 -0.046875 C 3.328125 -0.015625 2.519531 0 1.5 0 C 1.40625 0 1.359375 -0.0859375 1.359375 -0.265625 C 1.359375 -0.441406 1.40625 -0.53125 1.5 -0.53125 C 2.519531 -0.53125 3.265625 -0.601562 3.734375 -0.75 C 4.203125 -0.894531 4.515625 -1.179688 4.671875 -1.609375 C 4.835938 -2.035156 4.921875 -2.6875 4.921875 -3.5625 L 4.921875 -23.9375 C 4.921875 -24.8125 4.847656 -25.453125 4.703125 -25.859375 C 4.554688 -26.273438 4.265625 -26.5625 3.828125 -26.71875 C 3.390625 -26.882812 2.710938 -26.96875 1.796875 -26.96875 C 1.710938 -26.96875 1.671875 -27.054688 1.671875 -27.234375 C 1.671875 -27.410156 1.710938 -27.5 1.796875 -27.5 L 20.453125 -27.5 C 20.753906 -27.5 20.90625 -27.367188 20.90625 -27.109375 Z M 20.984375 -21.25 "/></g></g></g><g fill="#000000" fill-opacity="1"><g transform="translate(594.171749, 348.530072)"><g><path d="M 20.984375 -21.25 C 20.984375 -21.1875 20.898438 -21.140625 20.734375 -21.109375 C 20.578125 -21.085938 20.484375 -21.117188 20.453125 -21.203125 C 19.984375 -22.910156 19.191406 -24.171875 18.078125 -24.984375 C 16.960938 -25.804688 15.5 -26.21875 13.6875 -26.21875 L 12.359375 -26.21875 C 11.484375 -26.21875 10.835938 -26.023438 10.421875 -25.640625 C 10.015625 -25.265625 9.8125 -24.679688 9.8125 -23.890625 L 9.8125 -14.390625 L 12.984375 -14.390625 C 14.679688 -14.390625 15.976562 -14.6875 16.875 -15.28125 C 17.769531 -15.882812 18.21875 -16.71875 18.21875 -17.78125 C 18.21875 -17.832031 18.304688 -17.859375 18.484375 -17.859375 C 18.660156 -17.859375 18.75 -17.832031 18.75 -17.78125 L 18.703125 -13.765625 C 18.703125 -12.828125 18.71875 -12.125 18.75 -11.65625 L 18.78125 -9.328125 C 18.78125 -9.242188 18.691406 -9.203125 18.515625 -9.203125 C 18.347656 -9.203125 18.265625 -9.242188 18.265625 -9.328125 C 18.265625 -10.503906 17.800781 -11.4375 16.875 -12.125 C 15.945312 -12.8125 14.632812 -13.15625 12.9375 -13.15625 L 9.8125 -13.15625 L 9.8125 -3.734375 C 9.8125 -2.828125 9.925781 -2.15625 10.15625 -1.71875 C 10.394531 -1.28125 10.835938 -0.972656 11.484375 -0.796875 C 12.128906 -0.617188 13.140625 -0.53125 14.515625 -0.53125 C 14.578125 -0.53125 14.609375 -0.441406 14.609375 -0.265625 C 14.609375 -0.0859375 14.578125 0 14.515625 0 C 13.316406 0 12.378906 -0.015625 11.703125 -0.046875 L 7.21875 -0.09375 L 3.921875 -0.046875 C 3.328125 -0.015625 2.519531 0 1.5 0 C 1.40625 0 1.359375 -0.0859375 1.359375 -0.265625 C 1.359375 -0.441406 1.40625 -0.53125 1.5 -0.53125 C 2.519531 -0.53125 3.265625 -0.601562 3.734375 -0.75 C 4.203125 -0.894531 4.515625 -1.179688 4.671875 -1.609375 C 4.835938 -2.035156 4.921875 -2.6875 4.921875 -3.5625 L 4.921875 -23.9375 C 4.921875 -24.8125 4.847656 -25.453125 4.703125 -25.859375 C 4.554688 -26.273438 4.265625 -26.5625 3.828125 -26.71875 C 3.390625 -26.882812 2.710938 -26.96875 1.796875 -26.96875 C 1.710938 -26.96875 1.671875 -27.054688 1.671875 -27.234375 C 1.671875 -27.410156 1.710938 -27.5 1.796875 -27.5 L 20.453125 -27.5 C 20.753906 -27.5 20.90625 -27.367188 20.90625 -27.109375 Z M 20.984375 -21.25 "/></g></g></g><g fill="#000000" fill-opacity="1"><g transform="translate(625.935785, 348.530072)"><g><path d="M 9.984375 -3.5625 C 9.984375 -2.65625 10.054688 -1.992188 10.203125 -1.578125 C 10.347656 -1.171875 10.632812 -0.894531 11.0625 -0.75 C 11.488281 -0.601562 12.171875 -0.53125 13.109375 -0.53125 C 13.203125 -0.53125 13.25 -0.441406 13.25 -0.265625 C 13.25 -0.0859375 13.203125 0 13.109375 0 C 12.140625 0 11.378906 -0.015625 10.828125 -0.046875 L 7.484375 -0.09375 L 4.21875 -0.046875 C 3.632812 -0.015625 2.84375 0 1.84375 0 C 1.789062 0 1.765625 -0.0859375 1.765625 -0.265625 C 1.765625 -0.441406 1.789062 -0.53125 1.84375 -0.53125 C 2.78125 -0.53125 3.46875 -0.601562 3.90625 -0.75 C 4.351562 -0.894531 4.65625 -1.179688 4.8125 -1.609375 C 4.976562 -2.035156 5.0625 -2.6875 5.0625 -3.5625 L 5.0625 -23.9375 C 5.0625 -24.8125 4.976562 -25.453125 4.8125 -25.859375 C 4.65625 -26.273438 4.351562 -26.5625 3.90625 -26.71875 C 3.46875 -26.882812 2.78125 -26.96875 1.84375 -26.96875 C 1.789062 -26.96875 1.765625 -27.054688 1.765625 -27.234375 C 1.765625 -27.410156 1.789062 -27.5 1.84375 -27.5 L 4.21875 -27.453125 C 5.570312 -27.398438 6.660156 -27.375 7.484375 -27.375 C 8.390625 -27.375 9.519531 -27.398438 10.875 -27.453125 L 13.109375 -27.5 C 13.203125 -27.5 13.25 -27.410156 13.25 -27.234375 C 13.25 -27.054688 13.203125 -26.96875 13.109375 -26.96875 C 12.203125 -26.96875 11.523438 -26.878906 11.078125 -26.703125 C 10.640625 -26.523438 10.347656 -26.222656 10.203125 -25.796875 C 10.054688 -25.378906 9.984375 -24.726562 9.984375 -23.84375 Z M 9.984375 -3.5625 "/></g></g></g><g fill="#000000" fill-opacity="1"><g transform="translate(649.781151, 348.530072)"><g><path d="M 18.53125 -27.984375 C 19.8125 -27.984375 21.15625 -27.875 22.5625 -27.65625 C 23.976562 -27.4375 25.082031 -27.148438 25.875 -26.796875 C 26.132812 -26.703125 26.300781 -26.585938 26.375 -26.453125 C 26.445312 -26.328125 26.515625 -26.101562 26.578125 -25.78125 L 27.109375 -19.671875 C 27.109375 -19.578125 27.03125 -19.515625 26.875 -19.484375 C 26.726562 -19.460938 26.644531 -19.507812 26.625 -19.625 C 25.625 -21.9375 24.285156 -23.722656 22.609375 -24.984375 C 20.941406 -26.253906 19.007812 -26.890625 16.8125 -26.890625 C 13.90625 -26.890625 11.660156 -25.816406 10.078125 -23.671875 C 8.492188 -21.523438 7.703125 -18.648438 7.703125 -15.046875 C 7.703125 -12.347656 8.132812 -9.882812 9 -7.65625 C 9.863281 -5.425781 11.078125 -3.65625 12.640625 -2.34375 C 14.210938 -1.039062 16 -0.390625 18 -0.390625 C 19.875 -0.390625 21.550781 -1.015625 23.03125 -2.265625 C 24.507812 -3.515625 25.835938 -5.414062 27.015625 -7.96875 C 27.046875 -8.082031 27.140625 -8.125 27.296875 -8.09375 C 27.460938 -8.0625 27.546875 -8.003906 27.546875 -7.921875 L 26.890625 -1.9375 C 26.828125 -1.582031 26.757812 -1.351562 26.6875 -1.25 C 26.613281 -1.144531 26.445312 -1.035156 26.1875 -0.921875 C 23.570312 0.046875 20.882812 0.53125 18.125 0.53125 C 14.550781 0.53125 11.5625 -0.175781 9.15625 -1.59375 C 6.75 -3.019531 4.976562 -4.828125 3.84375 -7.015625 C 2.71875 -9.203125 2.15625 -11.484375 2.15625 -13.859375 C 2.15625 -16.648438 2.910156 -19.113281 4.421875 -21.25 C 5.929688 -23.394531 7.941406 -25.050781 10.453125 -26.21875 C 12.960938 -27.394531 15.65625 -27.984375 18.53125 -27.984375 Z M 18.53125 -27.984375 "/></g></g></g><g fill="#000000" fill-opacity="1"><g transform="translate(688.012015, 348.530072)"><g><path d="M 21.828125 -7 C 21.828125 -7.050781 21.882812 -7.078125 22 -7.078125 C 22.082031 -7.078125 22.160156 -7.054688 22.234375 -7.015625 C 22.316406 -6.972656 22.359375 -6.9375 22.359375 -6.90625 C 22.054688 -4.613281 21.90625 -2.53125 21.90625 -0.65625 C 21.90625 -0.425781 21.859375 -0.257812 21.765625 -0.15625 C 21.679688 -0.0507812 21.507812 0 21.25 0 L 1.796875 0 C 1.710938 0 1.671875 -0.0859375 1.671875 -0.265625 C 1.671875 -0.441406 1.710938 -0.53125 1.796875 -0.53125 C 2.742188 -0.53125 3.425781 -0.601562 3.84375 -0.75 C 4.269531 -0.894531 4.554688 -1.179688 4.703125 -1.609375 C 4.847656 -2.035156 4.921875 -2.6875 4.921875 -3.5625 L 4.921875 -23.9375 C 4.921875 -24.8125 4.847656 -25.453125 4.703125 -25.859375 C 4.554688 -26.273438 4.265625 -26.5625 3.828125 -26.71875 C 3.390625 -26.882812 2.710938 -26.96875 1.796875 -26.96875 C 1.710938 -26.96875 1.671875 -27.054688 1.671875 -27.234375 C 1.671875 -27.410156 1.710938 -27.5 1.796875 -27.5 L 20.453125 -27.5 C 20.753906 -27.5 20.90625 -27.367188 20.90625 -27.109375 L 20.984375 -21.25 C 20.984375 -21.1875 20.898438 -21.140625 20.734375 -21.109375 C 20.578125 -21.085938 20.484375 -21.117188 20.453125 -21.203125 C 19.984375 -22.910156 19.191406 -24.171875 18.078125 -24.984375 C 16.960938 -25.804688 15.5 -26.21875 13.6875 -26.21875 L 12.359375 -26.21875 C 11.484375 -26.21875 10.835938 -26.023438 10.421875 -25.640625 C 10.015625 -25.265625 9.8125 -24.679688 9.8125 -23.890625 L 9.8125 -14.921875 L 13.46875 -14.921875 C 15.164062 -14.921875 16.46875 -15.210938 17.375 -15.796875 C 18.289062 -16.378906 18.75 -17.203125 18.75 -18.265625 C 18.75 -18.347656 18.828125 -18.390625 18.984375 -18.390625 C 19.148438 -18.390625 19.234375 -18.347656 19.234375 -18.265625 L 19.1875 -14.296875 L 19.234375 -12.1875 C 19.285156 -11.1875 19.3125 -10.394531 19.3125 -9.8125 C 19.3125 -9.75 19.222656 -9.71875 19.046875 -9.71875 C 18.867188 -9.71875 18.78125 -9.75 18.78125 -9.8125 C 18.78125 -11.007812 18.316406 -11.953125 17.390625 -12.640625 C 16.472656 -13.335938 15.148438 -13.6875 13.421875 -13.6875 L 9.8125 -13.6875 L 9.8125 -3.734375 C 9.8125 -2.890625 9.972656 -2.257812 10.296875 -1.84375 C 10.617188 -1.4375 11.132812 -1.234375 11.84375 -1.234375 L 13.28125 -1.234375 C 15.570312 -1.234375 17.40625 -1.703125 18.78125 -2.640625 C 20.164062 -3.578125 21.179688 -5.03125 21.828125 -7 Z M 21.828125 -7 "/></g></g></g><g fill="#c6a86b" fill-opacity="1"><g transform="translate(57.03655, 419.03004)"><g><path d="M 6.171875 -11.203125 C 7.160156 -11.203125 8.019531 -11.035156 8.75 -10.703125 C 9.488281 -10.367188 10.054688 -9.898438 10.453125 -9.296875 C 10.847656 -8.691406 11.046875 -7.972656 11.046875 -7.140625 C 11.046875 -6.316406 10.847656 -5.597656 10.453125 -4.984375 C 10.054688 -4.367188 9.488281 -3.898438 8.75 -3.578125 C 8.019531 -3.253906 7.160156 -3.09375 6.171875 -3.09375 L 3.921875 -3.09375 L 3.921875 0 L 1.328125 0 L 1.328125 -11.203125 Z M 6.03125 -5.203125 C 6.8125 -5.203125 7.40625 -5.367188 7.8125 -5.703125 C 8.21875 -6.035156 8.421875 -6.515625 8.421875 -7.140625 C 8.421875 -7.765625 8.21875 -8.242188 7.8125 -8.578125 C 7.40625 -8.921875 6.8125 -9.09375 6.03125 -9.09375 L 3.921875 -9.09375 L 3.921875 -5.203125 Z M 6.03125 -5.203125 "/></g></g></g><g fill="#c6a86b" fill-opacity="1"><g transform="translate(73.369786, 419.03004)"><g><path d="M 8.46875 0 L 6.296875 -3.125 L 3.921875 -3.125 L 3.921875 0 L 1.328125 0 L 1.328125 -11.203125 L 6.171875 -11.203125 C 7.160156 -11.203125 8.019531 -11.035156 8.75 -10.703125 C 9.488281 -10.367188 10.054688 -9.898438 10.453125 -9.296875 C 10.847656 -8.691406 11.046875 -7.972656 11.046875 -7.140625 C 11.046875 -6.304688 10.84375 -5.585938 10.4375 -4.984375 C 10.039062 -4.378906 9.472656 -3.914062 8.734375 -3.59375 L 11.25 0 Z M 8.421875 -7.140625 C 8.421875 -7.765625 8.21875 -8.242188 7.8125 -8.578125 C 7.40625 -8.921875 6.8125 -9.09375 6.03125 -9.09375 L 3.921875 -9.09375 L 3.921875 -5.1875 L 6.03125 -5.1875 C 6.8125 -5.1875 7.40625 -5.351562 7.8125 -5.6875 C 8.21875 -6.03125 8.421875 -6.515625 8.421875 -7.140625 Z M 8.421875 -7.140625 "/></g></g></g><g fill="#c6a86b" fill-opacity="1"><g transform="translate(89.910995, 419.03004)"><g><path d="M 1.328125 -11.203125 L 3.921875 -11.203125 L 3.921875 0 L 1.328125 0 Z M 1.328125 -11.203125 "/></g></g></g><g fill="#c6a86b" fill-opacity="1"><g transform="translate(99.877769, 419.03004)"><g><path d="M 12.09375 -11.203125 L 7.25 0 L 4.6875 0 L -0.140625 -11.203125 L 2.65625 -11.203125 L 6.0625 -3.203125 L 9.515625 -11.203125 Z M 12.09375 -11.203125 "/></g></g></g><g fill="#c6a86b" fill-opacity="1"><g transform="translate(115.987021, 419.03004)"><g><path d="M 8.703125 -2.40625 L 3.5 -2.40625 L 2.515625 0 L -0.140625 0 L 4.84375 -11.203125 L 7.40625 -11.203125 L 12.421875 0 L 9.703125 0 Z M 7.890625 -4.375 L 6.109375 -8.65625 L 4.34375 -4.375 Z M 7.890625 -4.375 "/></g></g></g><g fill="#c6a86b" fill-opacity="1"><g transform="translate(132.464189, 419.03004)"><g><path d="M 3.640625 -9.09375 L 0.0625 -9.09375 L 0.0625 -11.203125 L 9.828125 -11.203125 L 9.828125 -9.09375 L 6.234375 -9.09375 L 6.234375 0 L 3.640625 0 Z M 3.640625 -9.09375 "/></g></g></g><g fill="#c6a86b" fill-opacity="1"><g transform="translate(147.133844, 419.03004)"><g><path d="M 10 -2.078125 L 10 0 L 1.328125 0 L 1.328125 -11.203125 L 9.796875 -11.203125 L 9.796875 -9.125 L 3.90625 -9.125 L 3.90625 -6.6875 L 9.109375 -6.6875 L 9.109375 -4.671875 L 3.90625 -4.671875 L 3.90625 -2.078125 Z M 10 -2.078125 "/></g></g></g><g fill="#c6a86b" fill-opacity="1"><g transform="translate(162.651299, 419.03004)"><g/></g></g><g fill="#c6a86b" fill-opacity="1"><g transform="translate(171.962246, 419.03004)"><g><path d="M 6.6875 0.1875 C 5.539062 0.1875 4.503906 -0.0546875 3.578125 -0.546875 C 2.660156 -1.046875 1.9375 -1.734375 1.40625 -2.609375 C 0.882812 -3.492188 0.625 -4.488281 0.625 -5.59375 C 0.625 -6.707031 0.882812 -7.703125 1.40625 -8.578125 C 1.9375 -9.460938 2.660156 -10.148438 3.578125 -10.640625 C 4.503906 -11.140625 5.546875 -11.390625 6.703125 -11.390625 C 7.671875 -11.390625 8.546875 -11.21875 9.328125 -10.875 C 10.117188 -10.539062 10.78125 -10.050781 11.3125 -9.40625 L 9.640625 -7.875 C 8.890625 -8.75 7.953125 -9.1875 6.828125 -9.1875 C 6.140625 -9.1875 5.519531 -9.03125 4.96875 -8.71875 C 4.425781 -8.414062 4.003906 -7.992188 3.703125 -7.453125 C 3.398438 -6.910156 3.25 -6.289062 3.25 -5.59375 C 3.25 -4.90625 3.398438 -4.285156 3.703125 -3.734375 C 4.003906 -3.191406 4.425781 -2.769531 4.96875 -2.46875 C 5.519531 -2.164062 6.140625 -2.015625 6.828125 -2.015625 C 7.953125 -2.015625 8.890625 -2.457031 9.640625 -3.34375 L 11.3125 -1.8125 C 10.78125 -1.15625 10.117188 -0.65625 9.328125 -0.3125 C 8.535156 0.0195312 7.65625 0.1875 6.6875 0.1875 Z M 6.6875 0.1875 "/></g></g></g><g fill="#c6a86b" fill-opacity="1"><g transform="translate(188.231498, 419.03004)"><g><path d="M 6.75 0.1875 C 5.59375 0.1875 4.546875 -0.0625 3.609375 -0.5625 C 2.671875 -1.0625 1.9375 -1.75 1.40625 -2.625 C 0.882812 -3.507812 0.625 -4.5 0.625 -5.59375 C 0.625 -6.695312 0.882812 -7.6875 1.40625 -8.5625 C 1.9375 -9.445312 2.671875 -10.140625 3.609375 -10.640625 C 4.546875 -11.140625 5.59375 -11.390625 6.75 -11.390625 C 7.914062 -11.390625 8.960938 -11.140625 9.890625 -10.640625 C 10.816406 -10.140625 11.546875 -9.445312 12.078125 -8.5625 C 12.609375 -7.6875 12.875 -6.695312 12.875 -5.59375 C 12.875 -4.5 12.609375 -3.507812 12.078125 -2.625 C 11.546875 -1.75 10.816406 -1.0625 9.890625 -0.5625 C 8.960938 -0.0625 7.914062 0.1875 6.75 0.1875 Z M 6.75 -2.015625 C 7.414062 -2.015625 8.015625 -2.164062 8.546875 -2.46875 C 9.078125 -2.769531 9.492188 -3.191406 9.796875 -3.734375 C 10.097656 -4.285156 10.25 -4.90625 10.25 -5.59375 C 10.25 -6.289062 10.097656 -6.910156 9.796875 -7.453125 C 9.492188 -7.992188 9.078125 -8.414062 8.546875 -8.71875 C 8.015625 -9.03125 7.414062 -9.1875 6.75 -9.1875 C 6.09375 -9.1875 5.492188 -9.03125 4.953125 -8.71875 C 4.421875 -8.414062 4.003906 -7.992188 3.703125 -7.453125 C 3.398438 -6.910156 3.25 -6.289062 3.25 -5.59375 C 3.25 -4.90625 3.398438 -4.285156 3.703125 -3.734375 C 4.003906 -3.191406 4.421875 -2.769531 4.953125 -2.46875 C 5.492188 -2.164062 6.09375 -2.015625 6.75 -2.015625 Z M 6.75 -2.015625 "/></g></g></g><g fill="#c6a86b" fill-opacity="1"><g transform="translate(206.516283, 419.03004)"><g><path d="M 11.59375 -11.203125 L 11.59375 0 L 9.46875 0 L 3.890625 -6.796875 L 3.890625 0 L 1.328125 0 L 1.328125 -11.203125 L 3.46875 -11.203125 L 9.046875 -4.40625 L 9.046875 -11.203125 Z M 11.59375 -11.203125 "/></g></g></g><g fill="#c6a86b" fill-opacity="1"><g transform="translate(224.225213, 419.03004)"><g><path d="M 6.6875 0.1875 C 5.539062 0.1875 4.503906 -0.0546875 3.578125 -0.546875 C 2.660156 -1.046875 1.9375 -1.734375 1.40625 -2.609375 C 0.882812 -3.492188 0.625 -4.488281 0.625 -5.59375 C 0.625 -6.707031 0.882812 -7.703125 1.40625 -8.578125 C 1.9375 -9.460938 2.660156 -10.148438 3.578125 -10.640625 C 4.503906 -11.140625 5.546875 -11.390625 6.703125 -11.390625 C 7.671875 -11.390625 8.546875 -11.21875 9.328125 -10.875 C 10.117188 -10.539062 10.78125 -10.050781 11.3125 -9.40625 L 9.640625 -7.875 C 8.890625 -8.75 7.953125 -9.1875 6.828125 -9.1875 C 6.140625 -9.1875 5.519531 -9.03125 4.96875 -8.71875 C 4.425781 -8.414062 4.003906 -7.992188 3.703125 -7.453125 C 3.398438 -6.910156 3.25 -6.289062 3.25 -5.59375 C 3.25 -4.90625 3.398438 -4.285156 3.703125 -3.734375 C 4.003906 -3.191406 4.425781 -2.769531 4.96875 -2.46875 C 5.519531 -2.164062 6.140625 -2.015625 6.828125 -2.015625 C 7.953125 -2.015625 8.890625 -2.457031 9.640625 -3.34375 L 11.3125 -1.8125 C 10.78125 -1.15625 10.117188 -0.65625 9.328125 -0.3125 C 8.535156 0.0195312 7.65625 0.1875 6.6875 0.1875 Z M 6.6875 0.1875 "/></g></g></g><g fill="#c6a86b" fill-opacity="1"><g transform="translate(240.734425, 419.03004)"><g><path d="M 1.328125 -11.203125 L 3.921875 -11.203125 L 3.921875 0 L 1.328125 0 Z M 1.328125 -11.203125 "/></g></g></g><g fill="#c6a86b" fill-opacity="1"><g transform="translate(250.765193, 419.03004)"><g><path d="M 10 -2.078125 L 10 0 L 1.328125 0 L 1.328125 -11.203125 L 9.796875 -11.203125 L 9.796875 -9.125 L 3.90625 -9.125 L 3.90625 -6.6875 L 9.109375 -6.6875 L 9.109375 -4.671875 L 3.90625 -4.671875 L 3.90625 -2.078125 Z M 10 -2.078125 "/></g></g></g><g fill="#c6a86b" fill-opacity="1"><g transform="translate(266.282648, 419.03004)"><g><path d="M 8.46875 0 L 6.296875 -3.125 L 3.921875 -3.125 L 3.921875 0 L 1.328125 0 L 1.328125 -11.203125 L 6.171875 -11.203125 C 7.160156 -11.203125 8.019531 -11.035156 8.75 -10.703125 C 9.488281 -10.367188 10.054688 -9.898438 10.453125 -9.296875 C 10.847656 -8.691406 11.046875 -7.972656 11.046875 -7.140625 C 11.046875 -6.304688 10.84375 -5.585938 10.4375 -4.984375 C 10.039062 -4.378906 9.472656 -3.914062 8.734375 -3.59375 L 11.25 0 Z M 8.421875 -7.140625 C 8.421875 -7.765625 8.21875 -8.242188 7.8125 -8.578125 C 7.40625 -8.921875 6.8125 -9.09375 6.03125 -9.09375 L 3.921875 -9.09375 L 3.921875 -5.1875 L 6.03125 -5.1875 C 6.8125 -5.1875 7.40625 -5.351562 7.8125 -5.6875 C 8.21875 -6.03125 8.421875 -6.515625 8.421875 -7.140625 Z M 8.421875 -7.140625 "/></g></g></g><g fill="#c6a86b" fill-opacity="1"><g transform="translate(282.823847, 419.03004)"><g><path d="M 8.890625 -5.78125 L 11.265625 -5.78125 L 11.265625 -1.234375 C 10.660156 -0.773438 9.957031 -0.421875 9.15625 -0.171875 C 8.351562 0.0664062 7.546875 0.1875 6.734375 0.1875 C 5.566406 0.1875 4.519531 -0.0546875 3.59375 -0.546875 C 2.664062 -1.046875 1.9375 -1.734375 1.40625 -2.609375 C 0.882812 -3.492188 0.625 -4.488281 0.625 -5.59375 C 0.625 -6.707031 0.882812 -7.703125 1.40625 -8.578125 C 1.9375 -9.460938 2.671875 -10.148438 3.609375 -10.640625 C 4.554688 -11.140625 5.613281 -11.390625 6.78125 -11.390625 C 7.757812 -11.390625 8.648438 -11.222656 9.453125 -10.890625 C 10.253906 -10.566406 10.925781 -10.085938 11.46875 -9.453125 L 9.8125 -7.921875 C 9.007812 -8.765625 8.039062 -9.1875 6.90625 -9.1875 C 6.195312 -9.1875 5.5625 -9.035156 5 -8.734375 C 4.445312 -8.429688 4.015625 -8.007812 3.703125 -7.46875 C 3.398438 -6.925781 3.25 -6.300781 3.25 -5.59375 C 3.25 -4.90625 3.398438 -4.285156 3.703125 -3.734375 C 4.015625 -3.191406 4.445312 -2.769531 5 -2.46875 C 5.550781 -2.164062 6.175781 -2.015625 6.875 -2.015625 C 7.625 -2.015625 8.296875 -2.175781 8.890625 -2.5 Z M 8.890625 -5.78125 "/></g></g></g><g fill="#c6a86b" fill-opacity="1"><g transform="translate(299.940911, 419.03004)"><g><path d="M 10 -2.078125 L 10 0 L 1.328125 0 L 1.328125 -11.203125 L 9.796875 -11.203125 L 9.796875 -9.125 L 3.90625 -9.125 L 3.90625 -6.6875 L 9.109375 -6.6875 L 9.109375 -4.671875 L 3.90625 -4.671875 L 3.90625 -2.078125 Z M 10 -2.078125 "/></g></g></g><g fill="#c6a86b" fill-opacity="1"><g transform="translate(315.458366, 419.03004)"><g/></g></g><g fill="#c6a86b" fill-opacity="1"><g transform="translate(324.769325, 419.03004)"><g><path d="M 3.921875 -9.125 L 3.921875 -6.15625 L 9.109375 -6.15625 L 9.109375 -4.078125 L 3.921875 -4.078125 L 3.921875 0 L 1.328125 0 L 1.328125 -11.203125 L 9.796875 -11.203125 L 9.796875 -9.125 Z M 3.921875 -9.125 "/></g></g></g><g fill="#c6a86b" fill-opacity="1"><g transform="translate(339.662917, 419.03004)"><g><path d="M 6.75 0.1875 C 5.59375 0.1875 4.546875 -0.0625 3.609375 -0.5625 C 2.671875 -1.0625 1.9375 -1.75 1.40625 -2.625 C 0.882812 -3.507812 0.625 -4.5 0.625 -5.59375 C 0.625 -6.695312 0.882812 -7.6875 1.40625 -8.5625 C 1.9375 -9.445312 2.671875 -10.140625 3.609375 -10.640625 C 4.546875 -11.140625 5.59375 -11.390625 6.75 -11.390625 C 7.914062 -11.390625 8.960938 -11.140625 9.890625 -10.640625 C 10.816406 -10.140625 11.546875 -9.445312 12.078125 -8.5625 C 12.609375 -7.6875 12.875 -6.695312 12.875 -5.59375 C 12.875 -4.5 12.609375 -3.507812 12.078125 -2.625 C 11.546875 -1.75 10.816406 -1.0625 9.890625 -0.5625 C 8.960938 -0.0625 7.914062 0.1875 6.75 0.1875 Z M 6.75 -2.015625 C 7.414062 -2.015625 8.015625 -2.164062 8.546875 -2.46875 C 9.078125 -2.769531 9.492188 -3.191406 9.796875 -3.734375 C 10.097656 -4.285156 10.25 -4.90625 10.25 -5.59375 C 10.25 -6.289062 10.097656 -6.910156 9.796875 -7.453125 C 9.492188 -7.992188 9.078125 -8.414062 8.546875 -8.71875 C 8.015625 -9.03125 7.414062 -9.1875 6.75 -9.1875 C 6.09375 -9.1875 5.492188 -9.03125 4.953125 -8.71875 C 4.421875 -8.414062 4.003906 -7.992188 3.703125 -7.453125 C 3.398438 -6.910156 3.25 -6.289062 3.25 -5.59375 C 3.25 -4.90625 3.398438 -4.285156 3.703125 -3.734375 C 4.003906 -3.191406 4.421875 -2.769531 4.953125 -2.46875 C 5.492188 -2.164062 6.09375 -2.015625 6.75 -2.015625 Z M 6.75 -2.015625 "/></g></g></g><g fill="#c6a86b" fill-opacity="1"><g transform="translate(357.947713, 419.03004)"><g><path d="M 8.46875 0 L 6.296875 -3.125 L 3.921875 -3.125 L 3.921875 0 L 1.328125 0 L 1.328125 -11.203125 L 6.171875 -11.203125 C 7.160156 -11.203125 8.019531 -11.035156 8.75 -10.703125 C 9.488281 -10.367188 10.054688 -9.898438 10.453125 -9.296875 C 10.847656 -8.691406 11.046875 -7.972656 11.046875 -7.140625 C 11.046875 -6.304688 10.84375 -5.585938 10.4375 -4.984375 C 10.039062 -4.378906 9.472656 -3.914062 8.734375 -3.59375 L 11.25 0 Z M 8.421875 -7.140625 C 8.421875 -7.765625 8.21875 -8.242188 7.8125 -8.578125 C 7.40625 -8.921875 6.8125 -9.09375 6.03125 -9.09375 L 3.921875 -9.09375 L 3.921875 -5.1875 L 6.03125 -5.1875 C 6.8125 -5.1875 7.40625 -5.351562 7.8125 -5.6875 C 8.21875 -6.03125 8.421875 -6.515625 8.421875 -7.140625 Z M 8.421875 -7.140625 "/></g></g></g><g fill="#c6a86b" fill-opacity="1"><g transform="translate(374.488912, 419.03004)"><g/></g></g><g fill="#c6a86b" fill-opacity="1"><g transform="translate(383.79987, 419.03004)"><g><path d="M 1.328125 -11.203125 L 3.921875 -11.203125 L 3.921875 0 L 1.328125 0 Z M 1.328125 -11.203125 "/></g></g></g><g fill="#c6a86b" fill-opacity="1"><g transform="translate(393.830616, 419.03004)"><g><path d="M 11.59375 -11.203125 L 11.59375 0 L 9.46875 0 L 3.890625 -6.796875 L 3.890625 0 L 1.328125 0 L 1.328125 -11.203125 L 3.46875 -11.203125 L 9.046875 -4.40625 L 9.046875 -11.203125 Z M 11.59375 -11.203125 "/></g></g></g><g fill="#c6a86b" fill-opacity="1"><g transform="translate(411.539569, 419.03004)"><g><path d="M 3.640625 -9.09375 L 0.0625 -9.09375 L 0.0625 -11.203125 L 9.828125 -11.203125 L 9.828125 -9.09375 L 6.234375 -9.09375 L 6.234375 0 L 3.640625 0 Z M 3.640625 -9.09375 "/></g></g></g><g fill="#c6a86b" fill-opacity="1"><g transform="translate(426.2092, 419.03004)"><g><path d="M 10 -2.078125 L 10 0 L 1.328125 0 L 1.328125 -11.203125 L 9.796875 -11.203125 L 9.796875 -9.125 L 3.90625 -9.125 L 3.90625 -6.6875 L 9.109375 -6.6875 L 9.109375 -4.671875 L 3.90625 -4.671875 L 3.90625 -2.078125 Z M 10 -2.078125 "/></g></g></g><g fill="#c6a86b" fill-opacity="1"><g transform="translate(441.726655, 419.03004)"><g><path d="M 8.46875 0 L 6.296875 -3.125 L 3.921875 -3.125 L 3.921875 0 L 1.328125 0 L 1.328125 -11.203125 L 6.171875 -11.203125 C 7.160156 -11.203125 8.019531 -11.035156 8.75 -10.703125 C 9.488281 -10.367188 10.054688 -9.898438 10.453125 -9.296875 C 10.847656 -8.691406 11.046875 -7.972656 11.046875 -7.140625 C 11.046875 -6.304688 10.84375 -5.585938 10.4375 -4.984375 C 10.039062 -4.378906 9.472656 -3.914062 8.734375 -3.59375 L 11.25 0 Z M 8.421875 -7.140625 C 8.421875 -7.765625 8.21875 -8.242188 7.8125 -8.578125 C 7.40625 -8.921875 6.8125 -9.09375 6.03125 -9.09375 L 3.921875 -9.09375 L 3.921875 -5.1875 L 6.03125 -5.1875 C 6.8125 -5.1875 7.40625 -5.351562 7.8125 -5.6875 C 8.21875 -6.03125 8.421875 -6.515625 8.421875 -7.140625 Z M 8.421875 -7.140625 "/></g></g></g><g fill="#c6a86b" fill-opacity="1"><g transform="translate(458.267853, 419.03004)"><g><path d="M 11.59375 -11.203125 L 11.59375 0 L 9.46875 0 L 3.890625 -6.796875 L 3.890625 0 L 1.328125 0 L 1.328125 -11.203125 L 3.46875 -11.203125 L 9.046875 -4.40625 L 9.046875 -11.203125 Z M 11.59375 -11.203125 "/></g></g></g><g fill="#c6a86b" fill-opacity="1"><g transform="translate(475.976806, 419.03004)"><g><path d="M 8.703125 -2.40625 L 3.5 -2.40625 L 2.515625 0 L -0.140625 0 L 4.84375 -11.203125 L 7.40625 -11.203125 L 12.421875 0 L 9.703125 0 Z M 7.890625 -4.375 L 6.109375 -8.65625 L 4.34375 -4.375 Z M 7.890625 -4.375 "/></g></g></g><g fill="#c6a86b" fill-opacity="1"><g transform="translate(492.453962, 419.03004)"><g><path d="M 3.640625 -9.09375 L 0.0625 -9.09375 L 0.0625 -11.203125 L 9.828125 -11.203125 L 9.828125 -9.09375 L 6.234375 -9.09375 L 6.234375 0 L 3.640625 0 Z M 3.640625 -9.09375 "/></g></g></g><g fill="#c6a86b" fill-opacity="1"><g transform="translate(507.123639, 419.03004)"><g><path d="M 1.328125 -11.203125 L 3.921875 -11.203125 L 3.921875 0 L 1.328125 0 Z M 1.328125 -11.203125 "/></g></g></g><g fill="#c6a86b" fill-opacity="1"><g transform="translate(517.154385, 419.03004)"><g><path d="M 6.75 0.1875 C 5.59375 0.1875 4.546875 -0.0625 3.609375 -0.5625 C 2.671875 -1.0625 1.9375 -1.75 1.40625 -2.625 C 0.882812 -3.507812 0.625 -4.5 0.625 -5.59375 C 0.625 -6.695312 0.882812 -7.6875 1.40625 -8.5625 C 1.9375 -9.445312 2.671875 -10.140625 3.609375 -10.640625 C 4.546875 -11.140625 5.59375 -11.390625 6.75 -11.390625 C 7.914062 -11.390625 8.960938 -11.140625 9.890625 -10.640625 C 10.816406 -10.140625 11.546875 -9.445312 12.078125 -8.5625 C 12.609375 -7.6875 12.875 -6.695312 12.875 -5.59375 C 12.875 -4.5 12.609375 -3.507812 12.078125 -2.625 C 11.546875 -1.75 10.816406 -1.0625 9.890625 -0.5625 C 8.960938 -0.0625 7.914062 0.1875 6.75 0.1875 Z M 6.75 -2.015625 C 7.414062 -2.015625 8.015625 -2.164062 8.546875 -2.46875 C 9.078125 -2.769531 9.492188 -3.191406 9.796875 -3.734375 C 10.097656 -4.285156 10.25 -4.90625 10.25 -5.59375 C 10.25 -6.289062 10.097656 -6.910156 9.796875 -7.453125 C 9.492188 -7.992188 9.078125 -8.414062 8.546875 -8.71875 C 8.015625 -9.03125 7.414062 -9.1875 6.75 -9.1875 C 6.09375 -9.1875 5.492188 -9.03125 4.953125 -8.71875 C 4.421875 -8.414062 4.003906 -7.992188 3.703125 -7.453125 C 3.398438 -6.910156 3.25 -6.289062 3.25 -5.59375 C 3.25 -4.90625 3.398438 -4.285156 3.703125 -3.734375 C 4.003906 -3.191406 4.421875 -2.769531 4.953125 -2.46875 C 5.492188 -2.164062 6.09375 -2.015625 6.75 -2.015625 Z M 6.75 -2.015625 "/></g></g></g><g fill="#c6a86b" fill-opacity="1"><g transform="translate(535.439205, 419.03004)"><g><path d="M 11.59375 -11.203125 L 11.59375 0 L 9.46875 0 L 3.890625 -6.796875 L 3.890625 0 L 1.328125 0 L 1.328125 -11.203125 L 3.46875 -11.203125 L 9.046875 -4.40625 L 9.046875 -11.203125 Z M 11.59375 -11.203125 "/></g></g></g><g fill="#c6a86b" fill-opacity="1"><g transform="translate(553.148111, 419.03004)"><g><path d="M 8.703125 -2.40625 L 3.5 -2.40625 L 2.515625 0 L -0.140625 0 L 4.84375 -11.203125 L 7.40625 -11.203125 L 12.421875 0 L 9.703125 0 Z M 7.890625 -4.375 L 6.109375 -8.65625 L 4.34375 -4.375 Z M 7.890625 -4.375 "/></g></g></g><g fill="#c6a86b" fill-opacity="1"><g transform="translate(570.185204, 419.03004)"><g><path d="M 1.328125 -11.203125 L 3.921875 -11.203125 L 3.921875 -2.109375 L 9.53125 -2.109375 L 9.53125 0 L 1.328125 0 Z M 1.328125 -11.203125 "/></g></g></g><g fill="#c6a86b" fill-opacity="1"><g transform="translate(584.630897, 419.03004)"><g/></g></g><g fill="#c6a86b" fill-opacity="1"><g transform="translate(593.941856, 419.03004)"><g><path d="M 6.6875 0.1875 C 5.539062 0.1875 4.503906 -0.0546875 3.578125 -0.546875 C 2.660156 -1.046875 1.9375 -1.734375 1.40625 -2.609375 C 0.882812 -3.492188 0.625 -4.488281 0.625 -5.59375 C 0.625 -6.707031 0.882812 -7.703125 1.40625 -8.578125 C 1.9375 -9.460938 2.660156 -10.148438 3.578125 -10.640625 C 4.503906 -11.140625 5.546875 -11.390625 6.703125 -11.390625 C 7.671875 -11.390625 8.546875 -11.21875 9.328125 -10.875 C 10.117188 -10.539062 10.78125 -10.050781 11.3125 -9.40625 L 9.640625 -7.875 C 8.890625 -8.75 7.953125 -9.1875 6.828125 -9.1875 C 6.140625 -9.1875 5.519531 -9.03125 4.96875 -8.71875 C 4.425781 -8.414062 4.003906 -7.992188 3.703125 -7.453125 C 3.398438 -6.910156 3.25 -6.289062 3.25 -5.59375 C 3.25 -4.90625 3.398438 -4.285156 3.703125 -3.734375 C 4.003906 -3.191406 4.425781 -2.769531 4.96875 -2.46875 C 5.519531 -2.164062 6.140625 -2.015625 6.828125 -2.015625 C 7.953125 -2.015625 8.890625 -2.457031 9.640625 -3.34375 L 11.3125 -1.8125 C 10.78125 -1.15625 10.117188 -0.65625 9.328125 -0.3125 C 8.535156 0.0195312 7.65625 0.1875 6.6875 0.1875 Z M 6.6875 0.1875 "/></g></g></g><g fill="#c6a86b" fill-opacity="1"><g transform="translate(610.451056, 419.03004)"><g><path d="M 1.328125 -11.203125 L 3.921875 -11.203125 L 3.921875 -2.109375 L 9.53125 -2.109375 L 9.53125 0 L 1.328125 0 Z M 1.328125 -11.203125 "/></g></g></g><g fill="#c6a86b" fill-opacity="1"><g transform="translate(624.896749, 419.03004)"><g><path d="M 1.328125 -11.203125 L 3.921875 -11.203125 L 3.921875 0 L 1.328125 0 Z M 1.328125 -11.203125 "/></g></g></g><g fill="#c6a86b" fill-opacity="1"><g transform="translate(634.927541, 419.03004)"><g><path d="M 10 -2.078125 L 10 0 L 1.328125 0 L 1.328125 -11.203125 L 9.796875 -11.203125 L 9.796875 -9.125 L 3.90625 -9.125 L 3.90625 -6.6875 L 9.109375 -6.6875 L 9.109375 -4.671875 L 3.90625 -4.671875 L 3.90625 -2.078125 Z M 10 -2.078125 "/></g></g></g><g fill="#c6a86b" fill-opacity="1"><g transform="translate(650.444996, 419.03004)"><g><path d="M 11.59375 -11.203125 L 11.59375 0 L 9.46875 0 L 3.890625 -6.796875 L 3.890625 0 L 1.328125 0 L 1.328125 -11.203125 L 3.46875 -11.203125 L 9.046875 -4.40625 L 9.046875 -11.203125 Z M 11.59375 -11.203125 "/></g></g></g><g fill="#c6a86b" fill-opacity="1"><g transform="translate(668.153903, 419.03004)"><g><path d="M 3.640625 -9.09375 L 0.0625 -9.09375 L 0.0625 -11.203125 L 9.828125 -11.203125 L 9.828125 -9.09375 L 6.234375 -9.09375 L 6.234375 0 L 3.640625 0 Z M 3.640625 -9.09375 "/></g></g></g><g fill="#c6a86b" fill-opacity="1"><g transform="translate(682.743608, 419.03004)"><g><path d="M 5.015625 0.1875 C 4.128906 0.1875 3.269531 0.0664062 2.4375 -0.171875 C 1.613281 -0.410156 0.953125 -0.722656 0.453125 -1.109375 L 1.328125 -3.0625 C 1.804688 -2.707031 2.375 -2.421875 3.03125 -2.203125 C 3.695312 -1.992188 4.363281 -1.890625 5.03125 -1.890625 C 5.757812 -1.890625 6.300781 -2 6.65625 -2.21875 C 7.007812 -2.4375 7.1875 -2.726562 7.1875 -3.09375 C 7.1875 -3.351562 7.082031 -3.570312 6.875 -3.75 C 6.664062 -3.925781 6.394531 -4.066406 6.0625 -4.171875 C 5.738281 -4.285156 5.300781 -4.40625 4.75 -4.53125 C 3.894531 -4.726562 3.195312 -4.925781 2.65625 -5.125 C 2.113281 -5.332031 1.644531 -5.660156 1.25 -6.109375 C 0.863281 -6.554688 0.671875 -7.15625 0.671875 -7.90625 C 0.671875 -8.550781 0.847656 -9.140625 1.203125 -9.671875 C 1.554688 -10.203125 2.085938 -10.617188 2.796875 -10.921875 C 3.503906 -11.234375 4.367188 -11.390625 5.390625 -11.390625 C 6.109375 -11.390625 6.804688 -11.300781 7.484375 -11.125 C 8.171875 -10.957031 8.769531 -10.71875 9.28125 -10.40625 L 8.484375 -8.4375 C 7.441406 -9.019531 6.40625 -9.3125 5.375 -9.3125 C 4.644531 -9.3125 4.109375 -9.191406 3.765625 -8.953125 C 3.421875 -8.722656 3.25 -8.414062 3.25 -8.03125 C 3.25 -7.644531 3.445312 -7.359375 3.84375 -7.171875 C 4.25 -6.984375 4.863281 -6.800781 5.6875 -6.625 C 6.53125 -6.414062 7.222656 -6.210938 7.765625 -6.015625 C 8.316406 -5.816406 8.785156 -5.5 9.171875 -5.0625 C 9.566406 -4.625 9.765625 -4.03125 9.765625 -3.28125 C 9.765625 -2.632812 9.582031 -2.046875 9.21875 -1.515625 C 8.863281 -0.992188 8.328125 -0.578125 7.609375 -0.265625 C 6.898438 0.0351562 6.035156 0.1875 5.015625 0.1875 Z M 5.015625 0.1875 "/></g></g></g></svg>